<svg width="24" height="24" viewBox="0 0 24 24" fill="none" xmlns="http://www.w3.org/2000/svg">
<path fill-rule="evenodd" clip-rule="evenodd" d="M9.778 21H14.222C17.343 21 18.904 21 20.025 20.265C20.5087 19.948 20.9253 19.5389 21.251 19.061C22 17.961 22 16.428 22 13.364C22 10.299 22 8.76699 21.251 7.66699C20.9253 7.1891 20.5087 6.77999 20.025 6.46299C19.305 5.98999 18.403 5.82099 17.022 5.76099C16.363 5.76099 15.796 5.27099 15.667 4.63599C15.5684 4.17085 15.3123 3.75402 14.9418 3.45594C14.5714 3.15785 14.1095 2.99679 13.634 2.99999H10.366C9.378 2.99999 8.527 3.68499 8.333 4.63599C8.204 5.27099 7.637 5.76099 6.978 5.76099C5.598 5.82099 4.696 5.99099 3.975 6.46299C3.49162 6.78005 3.07537 7.18916 2.75 7.66699C2 8.76699 2 10.299 2 13.364C2 16.428 2 17.96 2.749 19.061C3.073 19.537 3.489 19.946 3.975 20.265C5.096 21 6.657 21 9.778 21ZM12 9.27299C9.699 9.27299 7.833 11.104 7.833 13.363C7.833 15.623 9.699 17.454 12 17.454C14.301 17.454 16.167 15.623 16.167 13.364C16.167 11.104 14.301 9.27299 12 9.27299ZM12 10.909C10.62 10.909 9.5 12.008 9.5 13.364C9.5 14.719 10.62 15.818 12 15.818C13.38 15.818 14.5 14.719 14.5 13.364C14.5 12.008 13.38 10.909 12 10.909ZM16.722 10.091C16.722 9.63899 17.095 9.27299 17.556 9.27299H18.666C19.126 9.27299 19.5 9.63899 19.5 10.091C19.4979 10.3099 19.409 10.519 19.2528 10.6724C19.0966 10.8257 18.8859 10.9109 18.667 10.909H17.556C17.4475 10.91 17.3399 10.8897 17.2393 10.8492C17.1387 10.8086 17.047 10.7487 16.9696 10.6727C16.8921 10.5968 16.8304 10.5063 16.7879 10.4065C16.7454 10.3067 16.723 10.1995 16.722 10.091Z" fill="white"/>
</svg>
